<svg xmlns="http://www.w3.org/2000/svg" style="width:120px height: 90px" height="90" viewBox="0 0 254.189 151.862"><path data-name="Path 4239" d="M100.481 147.025s10.275-1.766 14.448-6.421c.482 3.371 1.787 4.475 1.787 4.475s3.8 5.1 13.946 6.6c6.378.941 12.843-2.087 12.843-2.087s12.688-4.208 19.1-27.452c4.1-4.85 8.187-10.274 8.187-10.274s35.96-19.265 51.692-27.612c.642 5.137 4.014 6.742 4.014 6.742a17.413 17.413 0 0013 1.124s7.064-.963 8.348-20.388c6.9-8.99 5.779-16.535 5.779-16.535s-.16-3.05.482-14.127-3.05-14.609-3.05-14.609L240.8 18.925s-7.815-17.193-36.575-17.819c-67.522-4.376-89.092 5.627-89.092 5.627l-47.2 28.76S13.54 54.874 4.474 69.879s-1.563 45.328-1.563 45.328a15.547 15.547 0 00-1.068 3.246c11.719 20.227 41.323 26.162 41.323 26.162a153.27 153.27 0 0057.315 2.41z" fill="#d9d9d9"/></svg>