<svg id="Layer_1" data-name="Layer 1" xmlns="http://www.w3.org/2000/svg" viewBox="0 0 3698.59 1649.33"><defs><style>.cls-1{fill:#fff;}.cls-2{fill:#ed264f;}.cls-3{fill:#210e36;}</style></defs><title>Spinny Logo Vector</title><path class="cls-1" d="M1378.42,748.54,1049.49,419.6c-35.67-35.66-94-35.66-129.72,0L590.83,748.54a92,92,0,0,0,0,129.73l328.94,328.9c35.69,35.69,94.05,35.69,129.72,0l328.93-328.9A92,92,0,0,0,1378.42,748.54Z"/><path class="cls-2" d="M1389,747.15l-336-336c-36.43-36.43-96-36.43-132.49,0l-336,336c-36.44,36.46-36.44,96.06,0,132.51l336,335.92c36.45,36.46,96.06,36.46,132.49,0l336-335.92C1425.42,843.21,1425.42,783.61,1389,747.15ZM664.61,839.77A26.36,26.36,0,1,1,691,813.41,26.36,26.36,0,0,1,664.61,839.77Zm285.66-92.71q16.61,10.88,76.78,25.7t93.39,44.42q33.25,29.66,33.27,86.46t-42.62,92.18q-42.66,35.41-112.13,35.37-100.1,0-180.25-73.89l56.2-11.79-.3-57.43q68.19,59.65,126.15,59.67,26,0,40.81-11.18t14.78-30.22q0-19-15.67-30.22t-62.31-22.67Q904.6,835.93,870.5,807.8t-34.2-88.26q0-60.12,43.27-92.8t107.9-32.62a260.18,260.18,0,0,1,84.62,14.5q42.33,14.5,73.77,41.13l5.58,57.47-53.39,11.44q-54.94-41.73-113.64-41.74-23.53,0-37.17,11.17t-13.58,29.65Q933.66,736.21,950.27,747.06Zm357.26,92.71a26.36,26.36,0,1,1,26.36-26.36A26.38,26.38,0,0,1,1307.53,839.77Z"/><path class="cls-3" d="M1802.53,740.63c-20.13-18.21-39.3-23-53.67-23-9.11,0-22,1.44-30.19,8.15a30.32,30.32,0,0,0-11,23c0,9.59,4.31,16.29,11,21.57,6.71,5.75,15.33,9.58,31.15,16.77l18.69,8.62c15.33,7.19,29.71,15.34,42.16,30.67,11.51,14.38,16.3,29.23,16.3,49.84,0,33.54-13.42,63.25-32.11,81.94-25.88,25.4-58.94,31.15-91.53,31.15-23.48,0-42.17-2.87-63.73-14.38-15.81-8.62-31.15-21.56-42.65-34l41.21-52.71a112.76,112.76,0,0,0,26.84,25.4,72.65,72.65,0,0,0,37.38,10.54c11,0,26.35-3.36,35.46-10.06,8.62-6.71,13.41-17.73,13.41-29.71a29.7,29.7,0,0,0-9.1-22c-2.4-2.39-8.63-7.67-25.4-14.37l-18.69-7.67c-5.27-1.92-29.71-12.46-45-28.27s-21.09-34-21.09-54.15c0-33.07,13.42-57,28.75-72.36,25.88-25.4,59-30.19,86.26-30.19s58.94,5.27,92.49,31.62Z"/><path class="cls-3" d="M1920.89,1091.88h-69l39.78-323.46h69l-3.83,24.92a89.41,89.41,0,0,1,26.83-22.05c13.9-7.18,27.8-10.06,44.09-10.06,33.06,0,53.19,12.46,64.69,23.48,17.25,17.25,28.27,47,28.27,80,0,40.73-14.85,74.75-35.94,95.84s-44.56,28.75-72.35,28.75c-15.34,0-31.63-1.44-46.49-9.1a80.43,80.43,0,0,1-27.79-24.44Zm39.77-254.94c-12.46,12.46-17.25,26.84-17.25,43.13,0,10.07,2.4,24,12.94,35,8.14,8.63,21.08,14.86,35.94,14.86,13.9,0,28.27-5.27,38.33-14.86,11.51-10.54,19.17-30.19,19.17-46,0-13.42-6.23-28.27-14.85-35.94-8.63-8.15-22-12.46-34-12.46C1984.14,820.65,1971.2,826.4,1960.66,836.94Z"/><path class="cls-3" d="M2250.58,768.42l-26.36,213.72h-69l26.35-213.72Zm-25.4-131.3a40.25,40.25,0,1,1-40.25,40.25A39.88,39.88,0,0,1,2225.18,637.12Z"/><path class="cls-3" d="M2378.52,768.42l-3.36,23.48a101.61,101.61,0,0,1,26.36-20.13c15.33-8.14,27.32-9.1,42.17-9.1,17.73,0,39.29,2.39,55.59,18.21,16.77,16.29,18.21,37.85,18.21,50.79,0,7.19-.48,17.73-3.36,40.74l-12.94,109.73h-69l11.5-92.48c2.88-22,2.88-31.15,2.88-34.51,0-8.14-1.44-18.21-8.63-25.87-7.67-7.67-18.21-9.11-25.4-9.11-12,0-22.52,2.88-31.15,11.5-12.46,12.94-15.33,33.55-16.77,45.05l-12.46,105.42h-69l26.35-213.72Z"/><path class="cls-3" d="M2650.22,768.42l-3.35,23.48a101.41,101.41,0,0,1,26.35-20.13c15.34-8.14,27.32-9.1,42.17-9.1,17.73,0,39.3,2.39,55.59,18.21,16.77,16.29,18.21,37.85,18.21,50.79,0,7.19-.48,17.73-3.35,40.74L2772.9,982.14h-69l11.5-92.48c2.88-22,2.88-31.15,2.88-34.51,0-8.14-1.44-18.21-8.63-25.87-7.66-7.67-18.21-9.11-25.39-9.11-12,0-22.53,2.88-31.15,11.5-12.46,12.94-15.34,33.55-16.77,45.05l-12.46,105.42h-69l26.36-213.72Z"/><path class="cls-3" d="M2902.28,954.83l-82.9-186.41H2898l47.44,116.92,71.88-116.92h81l-206.53,323.46h-77.63Z"/></svg>